solid ASCII
  facet normal -1.745241e-02 0.000000e+00 -9.998477e-01
    outer loop
      vertex   2.499619e+01 3.000000e+01 -4.363102e-01
      vertex   1.499772e+00 3.000000e+01 -2.617862e-02
      vertex   2.499619e+01 4.000000e+01 -4.363102e-01
    endloop
  endfacet
  facet normal -1.745241e-02 0.000000e+00 -9.998477e-01
    outer loop
      vertex   2.499619e+01 4.000000e+01 -4.363102e-01
      vertex   1.499772e+00 3.000000e+01 -2.617862e-02
      vertex   1.499772e+00 4.000000e+01 -2.617862e-02
    endloop
  endfacet
  facet normal 0.000000e+00 -1.000000e+00 0.000000e+00
    outer loop
      vertex   2.499619e+01 3.000000e+01 -4.363102e-01
      vertex   2.499958e+01 3.000000e+01 -1.454433e-01
      vertex   1.499772e+00 3.000000e+01 -2.617862e-02
    endloop
  endfacet
  facet normal 0.000000e+00 -1.000000e+00 0.000000e+00
    outer loop
      vertex   1.499772e+00 3.000000e+01 -2.617862e-02
      vertex   2.499958e+01 3.000000e+01 -1.454433e-01
      vertex   1.499975e+00 3.000000e+01 -8.726599e-03
    endloop
  endfacet
  facet normal 0.000000e+00 -1.000000e+00 0.000000e+00
    outer loop
      vertex   1.499975e+00 3.000000e+01 -8.726599e-03
      vertex   2.499958e+01 3.000000e+01 -1.454433e-01
      vertex   1.499975e+00 3.000000e+01 8.726599e-03
    endloop
  endfacet
  facet normal 0.000000e+00 -1.000000e+00 0.000000e+00
    outer loop
      vertex   1.499975e+00 3.000000e+01 8.726599e-03
      vertex   2.499958e+01 3.000000e+01 -1.454433e-01
      vertex   2.499958e+01 3.000000e+01 1.454433e-01
    endloop
  endfacet
  facet normal 0.000000e+00 -1.000000e+00 0.000000e+00
    outer loop
      vertex   1.499975e+00 3.000000e+01 8.726599e-03
      vertex   2.499958e+01 3.000000e+01 1.454433e-01
      vertex   1.499772e+00 3.000000e+01 2.617862e-02
    endloop
  endfacet
  facet normal 0.000000e+00 -1.000000e+00 0.000000e+00
    outer loop
      vertex   1.499772e+00 3.000000e+01 2.617862e-02
      vertex   2.499958e+01 3.000000e+01 1.454433e-01
      vertex   2.499619e+01 3.000000e+01 4.363102e-01
    endloop
  endfacet
  facet normal -9.999323e-01 0.000000e+00 1.163527e-02
    outer loop
      vertex   1.499772e+00 3.000000e+01 -2.617862e-02
      vertex   1.499975e+00 3.000000e+01 -8.726599e-03
      vertex   1.499772e+00 4.000000e+01 -2.617862e-02
    endloop
  endfacet
  facet normal -9.999323e-01 0.000000e+00 1.163527e-02
    outer loop
      vertex   1.499772e+00 4.000000e+01 -2.617862e-02
      vertex   1.499975e+00 3.000000e+01 -8.726599e-03
      vertex   1.499975e+00 4.000000e+01 -8.726599e-03
    endloop
  endfacet
  facet normal -1.000000e+00 -0.000000e+00 -1.781120e-13
    outer loop
      vertex   1.499975e+00 4.000000e+01 -8.726599e-03
      vertex   1.499975e+00 3.000000e+01 -8.726599e-03
      vertex   1.499975e+00 4.000000e+01 8.726599e-03
    endloop
  endfacet
  facet normal -1.000000e+00 -0.000000e+00 -1.781120e-13
    outer loop
      vertex   1.499975e+00 4.000000e+01 8.726599e-03
      vertex   1.499975e+00 3.000000e+01 -8.726599e-03
      vertex   1.499975e+00 3.000000e+01 8.726599e-03
    endloop
  endfacet
  facet normal -9.999323e-01 -0.000000e+00 -1.163527e-02
    outer loop
      vertex   1.499975e+00 4.000000e+01 8.726599e-03
      vertex   1.499975e+00 3.000000e+01 8.726599e-03
      vertex   1.499772e+00 4.000000e+01 2.617862e-02
    endloop
  endfacet
  facet normal -9.999323e-01 -0.000000e+00 -1.163527e-02
    outer loop
      vertex   1.499772e+00 4.000000e+01 2.617862e-02
      vertex   1.499975e+00 3.000000e+01 8.726599e-03
      vertex   1.499772e+00 3.000000e+01 2.617862e-02
    endloop
  endfacet
  facet normal 0.000000e+00 1.000000e+00 -0.000000e+00
    outer loop
      vertex   2.499619e+01 4.000000e+01 -4.363102e-01
      vertex   1.499772e+00 4.000000e+01 -2.617862e-02
      vertex   2.499958e+01 4.000000e+01 -1.454433e-01
    endloop
  endfacet
  facet normal 0.000000e+00 1.000000e+00 0.000000e+00
    outer loop
      vertex   2.499958e+01 4.000000e+01 -1.454433e-01
      vertex   1.499772e+00 4.000000e+01 -2.617862e-02
      vertex   1.499975e+00 4.000000e+01 -8.726599e-03
    endloop
  endfacet
  facet normal 0.000000e+00 1.000000e+00 -0.000000e+00
    outer loop
      vertex   2.499958e+01 4.000000e+01 -1.454433e-01
      vertex   1.499975e+00 4.000000e+01 -8.726599e-03
      vertex   2.499958e+01 4.000000e+01 1.454433e-01
    endloop
  endfacet
  facet normal 0.000000e+00 1.000000e+00 0.000000e+00
    outer loop
      vertex   2.499958e+01 4.000000e+01 1.454433e-01
      vertex   1.499975e+00 4.000000e+01 -8.726599e-03
      vertex   1.499975e+00 4.000000e+01 8.726599e-03
    endloop
  endfacet
  facet normal 0.000000e+00 1.000000e+00 0.000000e+00
    outer loop
      vertex   2.499958e+01 4.000000e+01 1.454433e-01
      vertex   1.499975e+00 4.000000e+01 8.726599e-03
      vertex   1.499772e+00 4.000000e+01 2.617862e-02
    endloop
  endfacet
  facet normal 0.000000e+00 1.000000e+00 0.000000e+00
    outer loop
      vertex   1.499772e+00 4.000000e+01 2.617862e-02
      vertex   2.499619e+01 4.000000e+01 4.363102e-01
      vertex   2.499958e+01 4.000000e+01 1.454433e-01
    endloop
  endfacet
  facet normal 9.999323e-01 0.000000e+00 -1.163527e-02
    outer loop
      vertex   2.499619e+01 3.000000e+01 -4.363102e-01
      vertex   2.499619e+01 4.000000e+01 -4.363102e-01
      vertex   2.499958e+01 3.000000e+01 -1.454433e-01
    endloop
  endfacet
  facet normal 9.999323e-01 3.229435e-20 -1.163527e-02
    outer loop
      vertex   2.499958e+01 3.000000e+01 -1.454433e-01
      vertex   2.499619e+01 4.000000e+01 -4.363102e-01
      vertex   2.499958e+01 4.000000e+01 -1.454433e-01
    endloop
  endfacet
  facet normal 1.000000e+00 0.000000e+00 0.000000e+00
    outer loop
      vertex   2.499958e+01 3.000000e+01 -1.454433e-01
      vertex   2.499958e+01 4.000000e+01 -1.454433e-01
      vertex   2.499958e+01 3.000000e+01 1.454433e-01
    endloop
  endfacet
  facet normal 1.000000e+00 -0.000000e+00 0.000000e+00
    outer loop
      vertex   2.499958e+01 3.000000e+01 1.454433e-01
      vertex   2.499958e+01 4.000000e+01 -1.454433e-01
      vertex   2.499958e+01 4.000000e+01 1.454433e-01
    endloop
  endfacet
  facet normal 9.999323e-01 -3.229435e-20 1.163527e-02
    outer loop
      vertex   2.499958e+01 3.000000e+01 1.454433e-01
      vertex   2.499958e+01 4.000000e+01 1.454433e-01
      vertex   2.499619e+01 3.000000e+01 4.363102e-01
    endloop
  endfacet
  facet normal 9.999323e-01 -0.000000e+00 1.163527e-02
    outer loop
      vertex   2.499619e+01 3.000000e+01 4.363102e-01
      vertex   2.499958e+01 4.000000e+01 1.454433e-01
      vertex   2.499619e+01 4.000000e+01 4.363102e-01
    endloop
  endfacet
  facet normal -1.745241e-02 0.000000e+00 9.998477e-01
    outer loop
      vertex   2.499619e+01 4.000000e+01 4.363102e-01
      vertex   1.499772e+00 4.000000e+01 2.617862e-02
      vertex   2.499619e+01 3.000000e+01 4.363102e-01
    endloop
  endfacet
  facet normal -1.745241e-02 0.000000e+00 9.998477e-01
    outer loop
      vertex   2.499619e+01 3.000000e+01 4.363102e-01
      vertex   1.499772e+00 4.000000e+01 2.617862e-02
      vertex   1.499772e+00 3.000000e+01 2.617862e-02
    endloop
  endfacet
endsolid
