solid ASCII
  facet normal -0.000000e+00 -0.000000e+00 -1.000000e+00
    outer loop
      vertex   3.000000e+01 4.000000e+01 0.000000e+00
      vertex   3.000000e+01 0.000000e+00 0.000000e+00
      vertex   1.000000e+00 4.000000e+01 0.000000e+00
    endloop
  endfacet
  facet normal 0.000000e+00 -0.000000e+00 -1.000000e+00
    outer loop
      vertex   1.000000e+00 4.000000e+01 0.000000e+00
      vertex   3.000000e+01 0.000000e+00 0.000000e+00
      vertex   0.000000e+00 0.000000e+00 0.000000e+00
    endloop
  endfacet
  facet normal -0.000000e+00 0.000000e+00 -1.000000e+00
    outer loop
      vertex   1.000000e+00 4.000000e+01 0.000000e+00
      vertex   0.000000e+00 0.000000e+00 0.000000e+00
      vertex   0.000000e+00 8.000000e+01 0.000000e+00
    endloop
  endfacet
  facet normal 0.000000e+00 0.000000e+00 -1.000000e+00
    outer loop
      vertex   1.000000e+00 4.000000e+01 0.000000e+00
      vertex   0.000000e+00 8.000000e+01 0.000000e+00
      vertex   1.000000e+00 5.000000e+01 0.000000e+00
    endloop
  endfacet
  facet normal 0.000000e+00 0.000000e+00 -1.000000e+00
    outer loop
      vertex   1.000000e+00 5.000000e+01 0.000000e+00
      vertex   0.000000e+00 8.000000e+01 0.000000e+00
      vertex   3.000000e+01 8.000000e+01 0.000000e+00
    endloop
  endfacet
  facet normal 0.000000e+00 0.000000e+00 -1.000000e+00
    outer loop
      vertex   1.000000e+00 5.000000e+01 0.000000e+00
      vertex   3.000000e+01 8.000000e+01 0.000000e+00
      vertex   3.000000e+01 5.000000e+01 0.000000e+00
    endloop
  endfacet
  facet normal -3.489950e-02 0.000000e+00 9.993908e-01
    outer loop
      vertex   2.998172e+01 4.000000e+01 1.046985e+00
      vertex   9.993908e-01 4.000000e+01 3.489950e-02
      vertex   2.998172e+01 0.000000e+00 1.046985e+00
    endloop
  endfacet
  facet normal -3.489950e-02 -2.960595e-18 9.993908e-01
    outer loop
      vertex   2.998172e+01 0.000000e+00 1.046985e+00
      vertex   9.993908e-01 4.000000e+01 3.489950e-02
      vertex   0.000000e+00 0.000000e+00 0.000000e+00
    endloop
  endfacet
  facet normal -3.489950e-02 0.000000e+00 9.993908e-01
    outer loop
      vertex   0.000000e+00 0.000000e+00 0.000000e+00
      vertex   9.993908e-01 4.000000e+01 3.489950e-02
      vertex   0.000000e+00 8.000000e+01 0.000000e+00
    endloop
  endfacet
  facet normal -3.489950e-02 0.000000e+00 9.993908e-01
    outer loop
      vertex   0.000000e+00 8.000000e+01 0.000000e+00
      vertex   9.993908e-01 4.000000e+01 3.489950e-02
      vertex   9.993908e-01 5.000000e+01 3.489950e-02
    endloop
  endfacet
  facet normal -3.489950e-02 -1.480297e-18 9.993908e-01
    outer loop
      vertex   0.000000e+00 8.000000e+01 0.000000e+00
      vertex   9.993908e-01 5.000000e+01 3.489950e-02
      vertex   2.998172e+01 8.000000e+01 1.046985e+00
    endloop
  endfacet
  facet normal -3.489950e-02 0.000000e+00 9.993908e-01
    outer loop
      vertex   2.998172e+01 8.000000e+01 1.046985e+00
      vertex   9.993908e-01 5.000000e+01 3.489950e-02
      vertex   2.998172e+01 5.000000e+01 1.046985e+00
    endloop
  endfacet
endsolid
