solid ASCII
  facet normal -1.745241e-02 -0.000000e+00 -9.998477e-01
    outer loop
      vertex   2.499619e+01 3.000000e+01 -4.363102e-01
      vertex   2.499619e+01 0.000000e+00 -4.363102e-01
      vertex   1.499772e+00 3.000000e+01 -2.617861e-02
    endloop
  endfacet
  facet normal -1.745241e-02 -7.401487e-19 -9.998477e-01
    outer loop
      vertex   1.499772e+00 3.000000e+01 -2.617861e-02
      vertex   2.499619e+01 0.000000e+00 -4.363102e-01
      vertex   0.000000e+00 0.000000e+00 0.000000e+00
    endloop
  endfacet
  facet normal -1.745241e-02 0.000000e+00 -9.998477e-01
    outer loop
      vertex   1.499772e+00 3.000000e+01 -2.617861e-02
      vertex   0.000000e+00 0.000000e+00 0.000000e+00
      vertex   0.000000e+00 5.000000e+01 0.000000e+00
    endloop
  endfacet
  facet normal -1.745241e-02 0.000000e+00 -9.998477e-01
    outer loop
      vertex   1.499772e+00 3.000000e+01 -2.617861e-02
      vertex   0.000000e+00 5.000000e+01 0.000000e+00
      vertex   1.499772e+00 4.000000e+01 -2.617861e-02
    endloop
  endfacet
  facet normal -1.745241e-02 2.220446e-18 -9.998477e-01
    outer loop
      vertex   1.499772e+00 4.000000e+01 -2.617861e-02
      vertex   0.000000e+00 5.000000e+01 0.000000e+00
      vertex   2.499619e+01 5.000000e+01 -4.363102e-01
    endloop
  endfacet
  facet normal -1.745241e-02 0.000000e+00 -9.998477e-01
    outer loop
      vertex   1.499772e+00 4.000000e+01 -2.617861e-02
      vertex   2.499619e+01 5.000000e+01 -4.363102e-01
      vertex   2.499619e+01 4.000000e+01 -4.363102e-01
    endloop
  endfacet
  facet normal 0.000000e+00 -1.000000e+00 0.000000e+00
    outer loop
      vertex   2.499619e+01 0.000000e+00 -4.363102e-01
      vertex   2.499958e+01 0.000000e+00 -1.454433e-01
      vertex   0.000000e+00 0.000000e+00 0.000000e+00
    endloop
  endfacet
  facet normal 0.000000e+00 -1.000000e+00 0.000000e+00
    outer loop
      vertex   0.000000e+00 0.000000e+00 0.000000e+00
      vertex   2.499958e+01 0.000000e+00 -1.454433e-01
      vertex   2.499958e+01 0.000000e+00 1.454433e-01
    endloop
  endfacet
  facet normal 0.000000e+00 -1.000000e+00 0.000000e+00
    outer loop
      vertex   0.000000e+00 0.000000e+00 0.000000e+00
      vertex   2.499958e+01 0.000000e+00 1.454433e-01
      vertex   2.499619e+01 0.000000e+00 4.363102e-01
    endloop
  endfacet
  facet normal 0.000000e+00 1.000000e+00 0.000000e+00
    outer loop
      vertex   2.499619e+01 5.000000e+01 4.363102e-01
      vertex   2.499958e+01 5.000000e+01 1.454433e-01
      vertex   0.000000e+00 5.000000e+01 0.000000e+00
    endloop
  endfacet
  facet normal -0.000000e+00 1.000000e+00 0.000000e+00
    outer loop
      vertex   0.000000e+00 5.000000e+01 0.000000e+00
      vertex   2.499958e+01 5.000000e+01 1.454433e-01
      vertex   2.499958e+01 5.000000e+01 -1.454433e-01
    endloop
  endfacet
  facet normal 0.000000e+00 1.000000e+00 0.000000e+00
    outer loop
      vertex   0.000000e+00 5.000000e+01 0.000000e+00
      vertex   2.499958e+01 5.000000e+01 -1.454433e-01
      vertex   2.499619e+01 5.000000e+01 -4.363102e-01
    endloop
  endfacet
  facet normal 9.999323e-01 0.000000e+00 -1.163527e-02
    outer loop
      vertex   2.499619e+01 4.000000e+01 -4.363102e-01
      vertex   2.499619e+01 5.000000e+01 -4.363102e-01
      vertex   2.499958e+01 4.000000e+01 -1.454433e-01
    endloop
  endfacet
  facet normal 9.999323e-01 0.000000e+00 -1.163527e-02
    outer loop
      vertex   2.499958e+01 4.000000e+01 -1.454433e-01
      vertex   2.499619e+01 5.000000e+01 -4.363102e-01
      vertex   2.499958e+01 5.000000e+01 -1.454433e-01
    endloop
  endfacet
  facet normal 1.000000e+00 0.000000e+00 0.000000e+00
    outer loop
      vertex   2.499958e+01 4.000000e+01 -1.454433e-01
      vertex   2.499958e+01 5.000000e+01 -1.454433e-01
      vertex   2.499958e+01 4.000000e+01 1.454433e-01
    endloop
  endfacet
  facet normal 1.000000e+00 -0.000000e+00 0.000000e+00
    outer loop
      vertex   2.499958e+01 4.000000e+01 1.454433e-01
      vertex   2.499958e+01 5.000000e+01 -1.454433e-01
      vertex   2.499958e+01 5.000000e+01 1.454433e-01
    endloop
  endfacet
  facet normal 9.999323e-01 -0.000000e+00 1.163527e-02
    outer loop
      vertex   2.499958e+01 4.000000e+01 1.454433e-01
      vertex   2.499958e+01 5.000000e+01 1.454433e-01
      vertex   2.499619e+01 4.000000e+01 4.363102e-01
    endloop
  endfacet
  facet normal 9.999323e-01 -0.000000e+00 1.163527e-02
    outer loop
      vertex   2.499619e+01 4.000000e+01 4.363102e-01
      vertex   2.499958e+01 5.000000e+01 1.454433e-01
      vertex   2.499619e+01 5.000000e+01 4.363102e-01
    endloop
  endfacet
  facet normal 0.000000e+00 -1.000000e+00 0.000000e+00
    outer loop
      vertex   2.499619e+01 4.000000e+01 -4.363102e-01
      vertex   2.499958e+01 4.000000e+01 -1.454433e-01
      vertex   1.499772e+00 4.000000e+01 -2.617861e-02
    endloop
  endfacet
  facet normal 0.000000e+00 -1.000000e+00 0.000000e+00
    outer loop
      vertex   1.499772e+00 4.000000e+01 -2.617861e-02
      vertex   2.499958e+01 4.000000e+01 -1.454433e-01
      vertex   1.499975e+00 4.000000e+01 -8.726597e-03
    endloop
  endfacet
  facet normal 0.000000e+00 -1.000000e+00 0.000000e+00
    outer loop
      vertex   1.499975e+00 4.000000e+01 -8.726597e-03
      vertex   2.499958e+01 4.000000e+01 -1.454433e-01
      vertex   1.499975e+00 4.000000e+01 8.726597e-03
    endloop
  endfacet
  facet normal 0.000000e+00 -1.000000e+00 0.000000e+00
    outer loop
      vertex   1.499975e+00 4.000000e+01 8.726597e-03
      vertex   2.499958e+01 4.000000e+01 -1.454433e-01
      vertex   2.499958e+01 4.000000e+01 1.454433e-01
    endloop
  endfacet
  facet normal 0.000000e+00 -1.000000e+00 0.000000e+00
    outer loop
      vertex   1.499975e+00 4.000000e+01 8.726597e-03
      vertex   2.499958e+01 4.000000e+01 1.454433e-01
      vertex   1.499772e+00 4.000000e+01 2.617861e-02
    endloop
  endfacet
  facet normal 0.000000e+00 -1.000000e+00 0.000000e+00
    outer loop
      vertex   1.499772e+00 4.000000e+01 2.617861e-02
      vertex   2.499958e+01 4.000000e+01 1.454433e-01
      vertex   2.499619e+01 4.000000e+01 4.363102e-01
    endloop
  endfacet
  facet normal 9.999323e-01 0.000000e+00 -1.163527e-02
    outer loop
      vertex   1.499772e+00 4.000000e+01 -2.617861e-02
      vertex   1.499975e+00 4.000000e+01 -8.726597e-03
      vertex   1.499772e+00 3.000000e+01 -2.617861e-02
    endloop
  endfacet
  facet normal 9.999323e-01 0.000000e+00 -1.163527e-02
    outer loop
      vertex   1.499772e+00 3.000000e+01 -2.617861e-02
      vertex   1.499975e+00 4.000000e+01 -8.726597e-03
      vertex   1.499975e+00 3.000000e+01 -8.726597e-03
    endloop
  endfacet
  facet normal 1.000000e+00 -0.000000e+00 2.544458e-13
    outer loop
      vertex   1.499975e+00 3.000000e+01 -8.726597e-03
      vertex   1.499975e+00 4.000000e+01 -8.726597e-03
      vertex   1.499975e+00 3.000000e+01 8.726597e-03
    endloop
  endfacet
  facet normal 1.000000e+00 -0.000000e+00 2.544458e-13
    outer loop
      vertex   1.499975e+00 3.000000e+01 8.726597e-03
      vertex   1.499975e+00 4.000000e+01 -8.726597e-03
      vertex   1.499975e+00 4.000000e+01 8.726597e-03
    endloop
  endfacet
  facet normal 9.999323e-01 -0.000000e+00 1.163527e-02
    outer loop
      vertex   1.499975e+00 3.000000e+01 8.726597e-03
      vertex   1.499975e+00 4.000000e+01 8.726597e-03
      vertex   1.499772e+00 3.000000e+01 2.617861e-02
    endloop
  endfacet
  facet normal 9.999323e-01 -0.000000e+00 1.163527e-02
    outer loop
      vertex   1.499772e+00 3.000000e+01 2.617861e-02
      vertex   1.499975e+00 4.000000e+01 8.726597e-03
      vertex   1.499772e+00 4.000000e+01 2.617861e-02
    endloop
  endfacet
  facet normal 0.000000e+00 1.000000e+00 -0.000000e+00
    outer loop
      vertex   2.499619e+01 3.000000e+01 -4.363102e-01
      vertex   1.499772e+00 3.000000e+01 -2.617861e-02
      vertex   2.499958e+01 3.000000e+01 -1.454433e-01
    endloop
  endfacet
  facet normal 0.000000e+00 1.000000e+00 0.000000e+00
    outer loop
      vertex   2.499958e+01 3.000000e+01 -1.454433e-01
      vertex   1.499772e+00 3.000000e+01 -2.617861e-02
      vertex   1.499975e+00 3.000000e+01 -8.726597e-03
    endloop
  endfacet
  facet normal 0.000000e+00 1.000000e+00 -0.000000e+00
    outer loop
      vertex   2.499958e+01 3.000000e+01 -1.454433e-01
      vertex   1.499975e+00 3.000000e+01 -8.726597e-03
      vertex   2.499958e+01 3.000000e+01 1.454433e-01
    endloop
  endfacet
  facet normal 0.000000e+00 1.000000e+00 0.000000e+00
    outer loop
      vertex   2.499958e+01 3.000000e+01 1.454433e-01
      vertex   1.499975e+00 3.000000e+01 -8.726597e-03
      vertex   1.499975e+00 3.000000e+01 8.726597e-03
    endloop
  endfacet
  facet normal 0.000000e+00 1.000000e+00 0.000000e+00
    outer loop
      vertex   2.499958e+01 3.000000e+01 1.454433e-01
      vertex   1.499975e+00 3.000000e+01 8.726597e-03
      vertex   1.499772e+00 3.000000e+01 2.617861e-02
    endloop
  endfacet
  facet normal 0.000000e+00 1.000000e+00 0.000000e+00
    outer loop
      vertex   1.499772e+00 3.000000e+01 2.617861e-02
      vertex   2.499619e+01 3.000000e+01 4.363102e-01
      vertex   2.499958e+01 3.000000e+01 1.454433e-01
    endloop
  endfacet
  facet normal 9.999323e-01 0.000000e+00 -1.163527e-02
    outer loop
      vertex   2.499619e+01 3.000000e+01 -4.363102e-01
      vertex   2.499958e+01 3.000000e+01 -1.454433e-01
      vertex   2.499619e+01 0.000000e+00 -4.363102e-01
    endloop
  endfacet
  facet normal 9.999323e-01 0.000000e+00 -1.163527e-02
    outer loop
      vertex   2.499619e+01 0.000000e+00 -4.363102e-01
      vertex   2.499958e+01 3.000000e+01 -1.454433e-01
      vertex   2.499958e+01 0.000000e+00 -1.454433e-01
    endloop
  endfacet
  facet normal 1.000000e+00 0.000000e+00 0.000000e+00
    outer loop
      vertex   2.499958e+01 0.000000e+00 -1.454433e-01
      vertex   2.499958e+01 3.000000e+01 -1.454433e-01
      vertex   2.499958e+01 0.000000e+00 1.454433e-01
    endloop
  endfacet
  facet normal 1.000000e+00 -0.000000e+00 0.000000e+00
    outer loop
      vertex   2.499958e+01 0.000000e+00 1.454433e-01
      vertex   2.499958e+01 3.000000e+01 -1.454433e-01
      vertex   2.499958e+01 3.000000e+01 1.454433e-01
    endloop
  endfacet
  facet normal 9.999323e-01 -0.000000e+00 1.163527e-02
    outer loop
      vertex   2.499958e+01 0.000000e+00 1.454433e-01
      vertex   2.499958e+01 3.000000e+01 1.454433e-01
      vertex   2.499619e+01 0.000000e+00 4.363102e-01
    endloop
  endfacet
  facet normal 9.999323e-01 -0.000000e+00 1.163527e-02
    outer loop
      vertex   2.499619e+01 0.000000e+00 4.363102e-01
      vertex   2.499958e+01 3.000000e+01 1.454433e-01
      vertex   2.499619e+01 3.000000e+01 4.363102e-01
    endloop
  endfacet
  facet normal -1.745241e-02 0.000000e+00 9.998477e-01
    outer loop
      vertex   2.499619e+01 3.000000e+01 4.363102e-01
      vertex   1.499772e+00 3.000000e+01 2.617861e-02
      vertex   2.499619e+01 0.000000e+00 4.363102e-01
    endloop
  endfacet
  facet normal -1.745241e-02 0.000000e+00 9.998477e-01
    outer loop
      vertex   2.499619e+01 0.000000e+00 4.363102e-01
      vertex   1.499772e+00 3.000000e+01 2.617861e-02
      vertex   0.000000e+00 0.000000e+00 0.000000e+00
    endloop
  endfacet
  facet normal -1.745241e-02 0.000000e+00 9.998477e-01
    outer loop
      vertex   0.000000e+00 0.000000e+00 0.000000e+00
      vertex   1.499772e+00 3.000000e+01 2.617861e-02
      vertex   0.000000e+00 5.000000e+01 0.000000e+00
    endloop
  endfacet
  facet normal -1.745241e-02 0.000000e+00 9.998477e-01
    outer loop
      vertex   0.000000e+00 5.000000e+01 0.000000e+00
      vertex   1.499772e+00 3.000000e+01 2.617861e-02
      vertex   1.499772e+00 4.000000e+01 2.617861e-02
    endloop
  endfacet
  facet normal -1.745241e-02 2.220446e-18 9.998477e-01
    outer loop
      vertex   0.000000e+00 5.000000e+01 0.000000e+00
      vertex   1.499772e+00 4.000000e+01 2.617861e-02
      vertex   2.499619e+01 5.000000e+01 4.363102e-01
    endloop
  endfacet
  facet normal -1.745241e-02 0.000000e+00 9.998477e-01
    outer loop
      vertex   2.499619e+01 5.000000e+01 4.363102e-01
      vertex   1.499772e+00 4.000000e+01 2.617861e-02
      vertex   2.499619e+01 4.000000e+01 4.363102e-01
    endloop
  endfacet
endsolid
