solid ASCII
  facet normal 0.000000e+00 1.000000e+00 0.000000e+00
    outer loop
      vertex   2.998172e+01 0.000000e+00 1.046985e+00
      vertex   2.999188e+01 0.000000e+00 6.980687e-01
      vertex   0.000000e+00 0.000000e+00 0.000000e+00
    endloop
  endfacet
  facet normal 0.000000e+00 1.000000e+00 0.000000e+00
    outer loop
      vertex   0.000000e+00 0.000000e+00 0.000000e+00
      vertex   2.999188e+01 0.000000e+00 6.980687e-01
      vertex   2.999797e+01 0.000000e+00 3.490580e-01
    endloop
  endfacet
  facet normal 0.000000e+00 1.000000e+00 0.000000e+00
    outer loop
      vertex   0.000000e+00 0.000000e+00 0.000000e+00
      vertex   2.999797e+01 0.000000e+00 3.490580e-01
      vertex   3.000000e+01 0.000000e+00 0.000000e+00
    endloop
  endfacet
endsolid
