solid ASCII
  facet normal 9.999831e-01 0.000000e+00 5.817731e-03
    outer loop
      vertex   3.000000e+01 8.000000e+01 0.000000e+00
      vertex   2.999797e+01 8.000000e+01 3.490580e-01
      vertex   3.000000e+01 5.000000e+01 0.000000e+00
    endloop
  endfacet
  facet normal 9.999831e-01 0.000000e+00 5.817731e-03
    outer loop
      vertex   3.000000e+01 5.000000e+01 0.000000e+00
      vertex   2.999797e+01 8.000000e+01 3.490580e-01
      vertex   2.999797e+01 5.000000e+01 3.490580e-01
    endloop
  endfacet
  facet normal 9.998477e-01 -0.000000e+00 1.745241e-02
    outer loop
      vertex   2.999797e+01 5.000000e+01 3.490580e-01
      vertex   2.999797e+01 8.000000e+01 3.490580e-01
      vertex   2.999188e+01 5.000000e+01 6.980687e-01
    endloop
  endfacet
  facet normal 9.998477e-01 -0.000000e+00 1.745241e-02
    outer loop
      vertex   2.999188e+01 5.000000e+01 6.980687e-01
      vertex   2.999797e+01 8.000000e+01 3.490580e-01
      vertex   2.999188e+01 8.000000e+01 6.980687e-01
    endloop
  endfacet
  facet normal 9.995770e-01 -0.000000e+00 2.908472e-02
    outer loop
      vertex   2.999188e+01 5.000000e+01 6.980687e-01
      vertex   2.999188e+01 8.000000e+01 6.980687e-01
      vertex   2.998172e+01 5.000000e+01 1.046985e+00
    endloop
  endfacet
  facet normal 9.995770e-01 -0.000000e+00 2.908472e-02
    outer loop
      vertex   2.998172e+01 5.000000e+01 1.046985e+00
      vertex   2.999188e+01 8.000000e+01 6.980687e-01
      vertex   2.998172e+01 8.000000e+01 1.046985e+00
    endloop
  endfacet
  facet normal 0.000000e+00 -1.000000e+00 0.000000e+00
    outer loop
      vertex   9.997292e-01 5.000000e+01 2.326896e-02
      vertex   3.000000e+01 5.000000e+01 0.000000e+00
      vertex   9.993908e-01 5.000000e+01 3.489950e-02
    endloop
  endfacet
  facet normal 0.000000e+00 -1.000000e+00 0.000000e+00
    outer loop
      vertex   9.993908e-01 5.000000e+01 3.489950e-02
      vertex   3.000000e+01 5.000000e+01 0.000000e+00
      vertex   2.999797e+01 5.000000e+01 3.490580e-01
    endloop
  endfacet
  facet normal 0.000000e+00 -1.000000e+00 0.000000e+00
    outer loop
      vertex   9.993908e-01 5.000000e+01 3.489950e-02
      vertex   2.999797e+01 5.000000e+01 3.490580e-01
      vertex   2.999188e+01 5.000000e+01 6.980687e-01
    endloop
  endfacet
  facet normal 0.000000e+00 -1.000000e+00 0.000000e+00
    outer loop
      vertex   9.997292e-01 5.000000e+01 2.326896e-02
      vertex   9.999323e-01 5.000000e+01 1.163527e-02
      vertex   3.000000e+01 5.000000e+01 0.000000e+00
    endloop
  endfacet
  facet normal 0.000000e+00 -1.000000e+00 0.000000e+00
    outer loop
      vertex   3.000000e+01 5.000000e+01 0.000000e+00
      vertex   9.999323e-01 5.000000e+01 1.163527e-02
      vertex   1.000000e+00 5.000000e+01 0.000000e+00
    endloop
  endfacet
  facet normal -0.000000e+00 -1.000000e+00 0.000000e+00
    outer loop
      vertex   2.999188e+01 5.000000e+01 6.980687e-01
      vertex   2.998172e+01 5.000000e+01 1.046985e+00
      vertex   9.993908e-01 5.000000e+01 3.489950e-02
    endloop
  endfacet
  facet normal 9.995770e-01 4.443050e-17 2.908472e-02
    outer loop
      vertex   9.993908e-01 4.000000e+01 3.489950e-02
      vertex   9.997292e-01 4.000000e+01 2.326896e-02
      vertex   9.993908e-01 5.000000e+01 3.489950e-02
    endloop
  endfacet
  facet normal 9.995770e-01 0.000000e+00 2.908472e-02
    outer loop
      vertex   9.993908e-01 5.000000e+01 3.489950e-02
      vertex   9.997292e-01 4.000000e+01 2.326896e-02
      vertex   9.997292e-01 5.000000e+01 2.326896e-02
    endloop
  endfacet
  facet normal 9.998477e-01 0.000000e+00 1.745241e-02
    outer loop
      vertex   9.997292e-01 5.000000e+01 2.326896e-02
      vertex   9.997292e-01 4.000000e+01 2.326896e-02
      vertex   9.999323e-01 5.000000e+01 1.163527e-02
    endloop
  endfacet
  facet normal 9.998477e-01 6.055020e-21 1.745241e-02
    outer loop
      vertex   9.999323e-01 5.000000e+01 1.163527e-02
      vertex   9.997292e-01 4.000000e+01 2.326896e-02
      vertex   9.999323e-01 4.000000e+01 1.163527e-02
    endloop
  endfacet
  facet normal 9.999831e-01 2.018431e-21 5.817731e-03
    outer loop
      vertex   9.999323e-01 5.000000e+01 1.163527e-02
      vertex   9.999323e-01 4.000000e+01 1.163527e-02
      vertex   1.000000e+00 5.000000e+01 0.000000e+00
    endloop
  endfacet
  facet normal 9.999831e-01 0.000000e+00 5.817731e-03
    outer loop
      vertex   1.000000e+00 5.000000e+01 0.000000e+00
      vertex   9.999323e-01 4.000000e+01 1.163527e-02
      vertex   1.000000e+00 4.000000e+01 0.000000e+00
    endloop
  endfacet
  facet normal 0.000000e+00 1.000000e+00 0.000000e+00
    outer loop
      vertex   2.998172e+01 4.000000e+01 1.046985e+00
      vertex   2.999188e+01 4.000000e+01 6.980687e-01
      vertex   9.993908e-01 4.000000e+01 3.489950e-02
    endloop
  endfacet
  facet normal 0.000000e+00 1.000000e+00 0.000000e+00
    outer loop
      vertex   9.993908e-01 4.000000e+01 3.489950e-02
      vertex   2.999188e+01 4.000000e+01 6.980687e-01
      vertex   2.999797e+01 4.000000e+01 3.490580e-01
    endloop
  endfacet
  facet normal -0.000000e+00 1.000000e+00 0.000000e+00
    outer loop
      vertex   9.993908e-01 4.000000e+01 3.489950e-02
      vertex   2.999797e+01 4.000000e+01 3.490580e-01
      vertex   3.000000e+01 4.000000e+01 0.000000e+00
    endloop
  endfacet
  facet normal 0.000000e+00 1.000000e+00 -0.000000e+00
    outer loop
      vertex   1.000000e+00 4.000000e+01 0.000000e+00
      vertex   9.999323e-01 4.000000e+01 1.163527e-02
      vertex   3.000000e+01 4.000000e+01 0.000000e+00
    endloop
  endfacet
  facet normal 0.000000e+00 1.000000e+00 0.000000e+00
    outer loop
      vertex   3.000000e+01 4.000000e+01 0.000000e+00
      vertex   9.999323e-01 4.000000e+01 1.163527e-02
      vertex   9.997292e-01 4.000000e+01 2.326896e-02
    endloop
  endfacet
  facet normal 0.000000e+00 1.000000e+00 0.000000e+00
    outer loop
      vertex   3.000000e+01 4.000000e+01 0.000000e+00
      vertex   9.997292e-01 4.000000e+01 2.326896e-02
      vertex   9.993908e-01 4.000000e+01 3.489950e-02
    endloop
  endfacet
  facet normal 9.995770e-01 -8.878027e-17 2.908472e-02
    outer loop
      vertex   2.998172e+01 0.000000e+00 1.046985e+00
      vertex   2.999188e+01 0.000000e+00 6.980687e-01
      vertex   2.998172e+01 4.000000e+01 1.046985e+00
    endloop
  endfacet
  facet normal 9.995770e-01 0.000000e+00 2.908472e-02
    outer loop
      vertex   2.998172e+01 4.000000e+01 1.046985e+00
      vertex   2.999188e+01 0.000000e+00 6.980687e-01
      vertex   2.999188e+01 4.000000e+01 6.980687e-01
    endloop
  endfacet
  facet normal 9.998477e-01 0.000000e+00 1.745241e-02
    outer loop
      vertex   2.999188e+01 4.000000e+01 6.980687e-01
      vertex   2.999188e+01 0.000000e+00 6.980687e-01
      vertex   2.999797e+01 4.000000e+01 3.490580e-01
    endloop
  endfacet
  facet normal 9.998477e-01 0.000000e+00 1.745241e-02
    outer loop
      vertex   2.999797e+01 4.000000e+01 3.490580e-01
      vertex   2.999188e+01 0.000000e+00 6.980687e-01
      vertex   2.999797e+01 0.000000e+00 3.490580e-01
    endloop
  endfacet
  facet normal 9.999831e-01 0.000000e+00 5.817731e-03
    outer loop
      vertex   2.999797e+01 4.000000e+01 3.490580e-01
      vertex   2.999797e+01 0.000000e+00 3.490580e-01
      vertex   3.000000e+01 4.000000e+01 0.000000e+00
    endloop
  endfacet
  facet normal 9.999831e-01 0.000000e+00 5.817731e-03
    outer loop
      vertex   3.000000e+01 4.000000e+01 0.000000e+00
      vertex   2.999797e+01 0.000000e+00 3.490580e-01
      vertex   3.000000e+01 0.000000e+00 0.000000e+00
    endloop
  endfacet
endsolid
